HIERARCHY
ROOT Hips
{
	OFFSET 0.00000 0.00000 0.00000
	CHANNELS 6 Xposition Yposition Zposition Yrotation Zrotation Xrotation 
	JOINT Lumbar
	{
		OFFSET 0 0 0
		CHANNELS 3 Zrotation Xrotation Yrotation
		JOINT Neck
		{
			OFFSET 0.00 0.2701 0.00
			CHANNELS 3 Zrotation Xrotation Yrotation
			End Site
			{
				OFFSET 0.00 0.1379 0.00
			}
		}
		JOINT RightShoulder
		{
			OFFSET 0.0119 0.2289 0.1181
			CHANNELS 3 Zrotation Xrotation Yrotation
			JOINT RightElbow
			{
				OFFSET 0.00 -0.1475 0.00
				CHANNELS 2 Zrotation Yrotation
				JOINT RightWrist
				{
					OFFSET 0.00 -0.1605 0.00
					CHANNELS 2 Zrotation Xrotation
					End Site
					{
						OFFSET 0.0040 -0.1068 0.0006
					}
				}
			}
		}
		JOINT LeftShoulder
		{
			OFFSET 0.0119 0.2289 -0.1181
			CHANNELS 3 Zrotation Xrotation Yrotation
			JOINT LeftElbow
			{
				OFFSET 0.00 -0.1475 0.00
				CHANNELS 2 Zrotation Yrotation
				JOINT LeftWrist
				{
					OFFSET 0.00 -0.1605 0.00
					CHANNELS 2 Zrotation Xrotation
					End Site
					{
						OFFSET 0.0040 -0.1068 -0.0006
					}
				}
			}
		}
	}
	JOINT RightHip
	{
		OFFSET 0.0316 -0.0424 0.0458
		CHANNELS 3 Zrotation Xrotation Yrotation
		JOINT RightKnee
		{
			OFFSET 0.00 -0.2438 0.00
			CHANNELS 1 Zrotation
			JOINT RightAnkle
			{
				OFFSET 0.00 -0.2449 0.00
				CHANNELS 3 Zrotation Xrotation Yrotation
				End Site
				{
					OFFSET 0.1237 -0.0542 0.0051
				}
			}
		}
	}
	JOINT LeftHip
	{
		OFFSET 0.0316 -0.0424 -0.0458
		CHANNELS 3 Zrotation Xrotation Yrotation
		JOINT LeftKnee
		{
			OFFSET 0.00 -0.2438 0.00
			CHANNELS 1 Zrotation
			JOINT LeftAnkle
			{
				OFFSET 0.00 -0.2449 0.00
				CHANNELS 3 Zrotation Xrotation Yrotation
				End Site
				{
					OFFSET 0.1237 -0.0542 -0.0051
				}
			}
		}
	}
}
MOTION
Frames: 13
Frame Time: 0.02
-0.02406 -0.00473 -0.00989 19.86278 -29.53555 -9.00695 41.53868 -0.30866 17.2838 -2.54495 12.57736 -2.09758 49.06943 -14.60592 45.66888 63.55747 91.41786 19.54512 -1.45338 22.01436 34.74689 -29.24101 112.54039 -83.23881 -0.61381 0.275 48.0489 -5.47467 -12.49936 -22.07102 -7.30422 -2.49285 -3.48064 52.41769 9.53106 6.09773 -27.62651 -6.88598 1.70456 3.08487
-0.02425 -0.00474 -0.00975 19.86659 -29.59129 -9.07142 41.51729 -0.28968 17.20005 -2.40283 12.66403 -2.09764 53.08807 -15.03147 47.37209 57.94555 90.86618 16.74052 -1.73375 22.04782 34.30241 -30.484 112.45215 -83.29763 -0.79294 -0.77306 48.11094 -5.39476 -12.39459 -21.99723 -7.31671 -2.51042 -3.4904 52.55667 9.32376 5.05208 -27.628 -6.90061 1.81363 3.13581
-0.02439 -0.00475 -0.00967 20.03323 -29.64979 -9.17545 41.49924 -0.27451 17.08386 -2.24781 12.69395 -2.09766 57.03586 -16.27637 49.59881 51.63167 90.66963 14.03041 -2.04117 22.32019 33.83081 -31.89749 112.28904 -83.41647 -1.0011 -2.25504 48.11876 -5.30194 -12.2724 -21.91037 -7.33431 -2.54867 -3.51064 52.71145 9.04116 3.6928 -27.63371 -6.9186 1.94214 3.19559
-0.02454 -0.00477 -0.00957 20.13441 -29.70538 -9.2631 41.48087 -0.25752 16.98123 -2.10354 12.747 -2.0977 60.90859 -17.16668 51.51825 45.71773 90.39525 11.36805 -2.28927 22.47706 33.36577 -33.21899 112.1568 -83.55847 -1.15956 -3.47699 48.14546 -5.21642 -12.16851 -21.83088 -7.34942 -2.57775 -3.5262 52.85488 8.80644 2.53092 -27.63777 -6.93432 2.05515 3.24815
-0.02475 -0.00478 -0.00945 20.2019 -29.76913 -9.3452 41.45775 -0.2401 16.8811 -1.93683 12.8109 -2.09774 65.27153 -17.99293 53.7235 39.39501 89.77265 8.29569 -2.72854 22.66757 32.92007 -34.60168 112.03492 -83.4943 -1.4688 -4.95487 48.19686 -5.12434 -12.02175 -21.74407 -7.36562 -2.60627 -3.54161 53.01829 8.5134 1.13364 -27.64066 -6.95324 2.19642 3.31425
-0.02482 -0.0048 -0.00938 20.37704 -29.81596 -9.44755 41.4451 -0.22498 16.76922 -1.81498 12.83855 -2.09778 68.5749 -19.14205 55.46137 33.79159 89.95571 6.11284 -2.7842 22.84196 32.43103 -35.89589 111.8762 -83.86441 -1.47413 -6.01087 48.18376 -5.04262 -11.95704 -21.66995 -7.38073 -2.64087 -3.55982 53.14258 8.32376 0.15207 -27.64701 -6.96633 2.28356 3.35433
-0.02454 -0.00479 -0.00946 20.8129 -29.81686 -9.59899 41.46188 -0.21306 16.62989 -1.81443 12.78354 -2.09781 69.056 -20.99369 55.76523 30.24675 92.29857 6.33099 -1.70862 22.92623 31.81147 -36.92206 111.61718 -85.50497 -0.60889 -5.73739 48.00646 -4.99822 -12.1582 -21.63337 -7.39026 -2.68501 -3.58211 53.15917 8.44349 0.41426 -27.66191 -6.96179 2.21447 3.31917
-0.02412 -0.00478 -0.0096 21.35026 -29.80026 -9.76866 41.48889 -0.20381 16.48051 -1.86088 12.69324 -2.09783 68.45083 -23.13799 55.58161 27.48242 95.43108 7.45044 -0.25879 22.98271 31.1534 -37.8495 111.32711 -87.56559 0.5584 -5.03449 47.76611 -4.96403 -12.4372 -21.61038 -7.39864 -2.73476 -3.60696 53.13483 8.6689 1.10258 -27.68013 -6.95138 2.09062 3.25775
-0.02375 -0.00477 -0.00971 21.83904 -29.79048 -9.92811 41.51019 -0.1949 16.33822 -1.88961 12.61708 -2.09786 68.28506 -25.13997 55.63558 24.42684 98.19309 8.18177 0.97711 23.04358 30.52438 -38.81152 111.06241 -89.37648 1.5715 -4.56881 47.55395 -4.92135 -12.65677 -21.58174 -7.40846 -2.78344 -3.63139 53.1261 8.8427 1.58444 -27.69682 -6.94415 1.99301 3.20909
-0.02342 -0.00477 -0.00982 22.3451 -29.78536 -10.09758 41.53573 -0.17964 16.18496 -1.90193 12.54771 -2.09788 68.35528 -27.21191 55.65127 21.05438 101.03517 8.82541 2.39869 23.14948 29.84384 -39.82578 110.74717 -91.43388 2.65554 -3.94622 47.34122 -4.89344 -12.97358 -21.55018 -7.41489 -2.8271 -3.65331 53.13031 9.02952 2.11044 -27.71382 -6.93493 1.89005 3.15712
-0.02299 -0.00475 -0.00995 22.83564 -29.76663 -10.2494 41.55529 -0.1781 16.05155 -1.96046 12.45562 -2.09791 67.66573 -29.19461 55.60993 18.56601 103.87018 9.8644 3.52091 23.14955 29.26403 -40.70193 110.53127 -93.08178 3.66329 -3.53577 47.11619 -4.83862 -13.1112 -21.52837 -7.42766 -2.88167 -3.68059 53.09797 9.21467 2.64835 -27.73085 -6.92834 1.78534 3.10585
-0.02234 -0.0047 -0.01014 23.27009 -29.71214 -10.35275 41.55166 -0.21466 15.98491 -2.12913 12.31792 -2.09794 65.24243 -30.8724 55.65477 18.07978 106.69192 11.77551 3.74136 22.88337 28.95341 -41.25155 110.59376 -93.45108 4.39094 -3.87598 46.86634 -4.69629 -12.69507 -21.52809 -7.46137 -2.96993 -3.72472 52.97175 9.37523 3.12912 -27.74743 -6.93108 1.68609 3.06172
-0.0216 -0.00464 -0.01035 23.68209 -29.64497 -10.43657 41.54234 -0.26475 15.93719 -2.34364 12.15752 -2.09798 62.07785 -32.44198 55.63696 18.50369 109.44212 14.05146 3.64519 22.50737 28.74913 -41.6593 110.75821 -93.40047 5.02997 -4.43206 46.60782 -4.52856 -12.10326 -21.53759 -7.50087 -3.06793 -3.7736 52.81062 9.52973 3.60598 -27.76383 -6.93652 1.58749 3.01942
